<svg width="60" height="60" viewBox="0 0 60 60" fill="none" xmlns="http://www.w3.org/2000/svg">
<path d="M53.7716 32.9021V32.8831C53.7714 32.8761 53.7714 32.8691 53.7716 32.8619C53.2005 29.1632 51.7191 25.756 49.7539 22.6913C49.5066 22.3038 49.2495 21.9229 48.9866 21.5445C48.8591 21.361 48.73 21.1791 48.5985 20.9989C46.0714 17.5123 38.0892 8.0332 33.8958 3.09089C32.3096 1.22063 31.2657 0 31.2657 0C30.7927 0.376838 30.3304 0.765689 29.8788 1.16656L29.8632 1.18048C26.5929 4.2194 23.8811 7.80229 21.8496 11.768L21.8432 11.7803C21.452 12.5449 21.0867 13.3231 20.7472 14.115C19.9619 15.9496 19.3233 17.8429 18.838 19.7774C18.5436 20.9466 18.3052 22.1366 18.1227 23.3468C17.1191 23.1835 16.1054 23.0887 15.0888 23.0633C14.8965 23.0584 14.7042 23.0559 14.512 23.0559C12.8507 23.0546 11.1945 23.2388 9.57454 23.6048C8.58291 25.1967 7.78463 26.9001 7.19647 28.6791C6.40139 31.0866 5.9975 33.6049 6.00001 36.1388C6.00001 47.7208 14.301 57.3769 25.3114 59.5438C26.8555 59.8479 28.4258 60.0006 30 60C30.3107 60 30.6197 59.9934 30.9278 59.9827C31.7371 59.9511 32.5349 59.8813 33.3215 59.7731C35.1546 59.5204 36.9521 59.057 38.6775 58.3918C39.1374 58.2149 39.5901 58.0237 40.0355 57.8185C48.2756 54.0409 54 45.7538 54 36.1388C53.9967 35.056 53.9205 33.9746 53.7716 32.9021ZM22.2535 54.3481C19.8904 53.3557 17.7437 51.9164 15.9326 50.1104C14.1165 48.3098 12.6691 46.176 11.6708 43.827C10.6353 41.3936 10.1044 38.7776 10.1102 36.1355C10.1043 33.493 10.6351 30.8767 11.6708 28.4431C11.8356 28.0521 12.0139 27.6681 12.2056 27.2913C12.9674 27.1964 13.7344 27.1487 14.5021 27.1487C15.5821 27.1487 16.6599 27.2434 17.7231 27.4321C17.7001 27.9656 17.6885 28.5038 17.6885 29.0436C17.6739 39.0874 21.6574 48.7291 28.7689 55.863C26.526 55.7317 24.3224 55.2193 22.2535 54.3481ZM31.0703 52.3338C30.5881 51.8243 30.1242 51.3016 29.6786 50.7659C27.5429 48.2099 25.7975 45.3551 24.4989 42.2935C22.7143 38.1006 21.7994 33.5929 21.8085 29.0403C21.8085 28.9163 21.8085 28.7926 21.8085 28.6691C23.85 29.5695 25.7062 30.8377 27.2833 32.4097C29.7282 34.8276 31.4212 37.8942 32.1596 41.2434C32.4389 42.5159 32.5793 43.8148 32.5783 45.1173C32.5859 47.6002 32.0745 50.0578 31.0761 52.3338H31.0703ZM49.8914 36.8194C49.7655 40.5352 48.5861 44.1402 46.4892 47.2185C44.785 49.7186 42.5307 51.8002 39.897 53.3054L39.8706 53.293C39.1785 53.6873 38.4632 54.0397 37.7283 54.3481C36.8129 54.7334 35.8694 55.049 34.9061 55.2928C34.7347 55.3364 34.5628 55.3775 34.3902 55.4157C34.2972 55.4369 34.2048 55.4574 34.1118 55.4764C34.1479 55.4107 34.1834 55.3428 34.2181 55.2755C34.2717 55.1731 34.3244 55.0707 34.3755 54.9675C35.0045 53.7168 35.5112 52.4088 35.8883 51.0615C36.4296 49.1277 36.7033 47.1295 36.7016 45.1223C36.7023 43.6619 36.5579 42.2052 36.2705 40.7731C34.7437 33.1823 29.3005 26.9988 22.125 24.3887C22.4556 21.9743 23.0486 19.6028 23.894 17.3157C24.0836 16.804 24.2854 16.2958 24.4997 15.7912C24.8228 15.0309 25.1721 14.2854 25.5479 13.5547C25.55 13.551 25.5521 13.5472 25.5536 13.5432C25.7076 13.2246 25.8667 12.9108 26.0316 12.5979C27.325 10.1493 28.9555 7.89189 30.8759 5.89096L30.9081 5.92948C32.6104 7.93655 34.8888 10.6367 37.1581 13.3573C38.319 14.7499 39.4778 16.1483 40.5555 17.4632C42.5768 19.9298 44.3138 22.1023 45.2524 23.3926C45.3865 23.5778 45.5176 23.7621 45.6461 23.949C46.9942 25.8945 48.0358 27.8615 48.742 29.8071C49.191 31.0338 49.5147 32.3024 49.7084 33.5935V33.6098C49.8671 34.672 49.929 35.7463 49.893 36.8194H49.8914Z" fill="white"/>
</svg>
